<?xml version="1.0" encoding="iso-8859-1"?>
<!-- Generator: Adobe Illustrator 19.0.0, SVG Export Plug-In . SVG Version: 6.00 Build 0)  -->
<svg version="1.1" id="Capa_1" xmlns="http://www.w3.org/2000/svg" xmlns:xlink="http://www.w3.org/1999/xlink" x="0px" y="0px"
	 viewBox="0 0 512 512" style="enable-background:new 0 0 512 512;" xml:space="preserve" fill="#ffffff">
<g>
	<g>
		<path d="M497,271h-75V15c0-8.284-6.716-15-15-15H105c-0.08,0-0.157,0.011-0.237,0.012c-4.013,0.065-7.699,1.717-10.357,4.37
			c-0.005,0.005-0.01,0.009-0.015,0.014L4.396,94.391c-0.005,0.005-0.009,0.01-0.014,0.015c-2.273,2.278-3.886,5.403-4.283,8.916
			c-0.015,0.131-0.024,0.264-0.035,0.396c-0.03,0.352-0.048,0.704-0.053,1.058C0.01,104.851,0,104.924,0,105v347
			c0,33.084,26.916,60,60,60h392c33.084,0,60-26.916,60-60V286C512,277.716,505.284,271,497,271z M90,51.213V90H51.213L90,51.213z
			 M60,482c-16.542,0-30-13.458-30-30V120h75c8.284,0,15-6.716,15-15V30h272c0,17.034,0,405.937,0,422
			c0,10.154,2.599,20.592,8.052,30H60z M482,452c0,16.542-13.458,30-30,30s-30-13.458-30-30V301h60V452z"/>
	</g>
</g>
<g>
	<g>
		<path d="M195,181H75c-8.284,0-15,6.716-15,15v120c0,8.284,6.716,15,15,15h120c8.284,0,15-6.716,15-15V196
			C210,187.716,203.284,181,195,181z M180,301H90v-90h90V301z"/>
	</g>
</g>
<g>
	<g>
		<path d="M346,361H75c-8.284,0-15,6.716-15,15s6.716,15,15,15h271c8.284,0,15-6.716,15-15S354.284,361,346,361z"/>
	</g>
</g>
<g>
	<g>
		<path d="M346,422H75c-8.284,0-15,6.716-15,15s6.716,15,15,15h271c8.284,0,15-6.716,15-15S354.284,422,346,422z"/>
	</g>
</g>
<g>
	<g>
		<path d="M346,181h-90c-8.284,0-15,6.716-15,15s6.716,15,15,15h90c8.284,0,15-6.716,15-15S354.284,181,346,181z"/>
	</g>
</g>
<g>
	<g>
		<path d="M346,241h-90c-8.284,0-15,6.716-15,15s6.716,15,15,15h90c8.284,0,15-6.716,15-15S354.284,241,346,241z"/>
	</g>
</g>
<g>
	<g>
		<path d="M346,301h-90c-8.284,0-15,6.716-15,15s6.716,15,15,15h90c8.284,0,15-6.716,15-15S354.284,301,346,301z"/>
	</g>
</g>
<g>
	<g>
		<path d="M346,60H165c-8.284,0-15,6.716-15,15v60c0,8.284,6.716,15,15,15h181c8.284,0,15-6.716,15-15V75
			C361,66.716,354.284,60,346,60z M331,120H180V90h151V120z"/>
	</g>
</g>
<g>
</g>
<g>
</g>
<g>
</g>
<g>
</g>
<g>
</g>
<g>
</g>
<g>
</g>
<g>
</g>
<g>
</g>
<g>
</g>
<g>
</g>
<g>
</g>
<g>
</g>
<g>
</g>
<g>
</g>
</svg>
