<?xml version='1.0' encoding='utf-8'?>
<!DOCTYPE svg PUBLIC '-//W3C//DTD SVG 1.1//EN' 'http://www.w3.org/Graphics/SVG/1.1/DTD/svg11.dtd'>
<svg version="1.1" xmlns="http://www.w3.org/2000/svg" viewBox="0 0 512 512" xmlns:xlink="http://www.w3.org/1999/xlink" enable-background="new 0 0 512 512" fill="#000000">
  <g>
    <g>
      <path d="m199.9,307.1h-83.3c-56.3,0-101,44.8-102.1,100.1-3.1,16.7-7.3,45.9 3.1,56.3 28.1,27.1 91.7,37.5 140.6,37.5 50,0 112.5-10.4 140.6-37.5 10.4-10.4 6.3-39.6 3.1-56.3-0.9-55.3-46.7-100.1-102-100.1zm85.5,140.7c-19.8,19.8-68.8,32.3-126,32.3-57.3,0-107.3-12.5-126-31.3-2.1-4.2-12.1-117.3 83.3-122 21.7-1.1 84.4,0 84.4,0 93.5,0.1 86.4,117.9 84.3,121z"/>
      <path d="m157.2,288.3c45.8,0 83.3-37.5 82.3-82.4 0-45.9-36.5-82.4-82.3-82.4-44.8,0-82.3,37.5-82.3,82.4 1.42109e-14,45.9 36.5,82.4 82.3,82.4zm0-143.9c34.4,0 62.5,28.1 62.5,61.5s-28.1,61.5-62.5,61.5c-34.4,0-62.5-28.1-62.5-61.5s28.2-61.5 62.5-61.5z"/>
      <path d="M253.1,11v151.2h32.3v74l74-74H501V11H253.1z M481.2,142.4H352l-45.8,45.9v-45.9h-32.3V31.9h207.3V142.4z"/>
      <path d="m375,61c1-2.1 3.1-3.1 5.2-3.1 2.1,0 4.2,1 4.2,1 1,2.1 2.1,4.2 2.1,6.3 0,3.1-1,5.2-2.1,6.3l-8.3,9.4c-2.1,3.1-4.2,5.2-5.2,7.3-1,2.1-1,5.2-1,8.3v9.4h18.8v-8.3c0-2.1 0-4.2 1-5.2 1-1 2.1-2.1 4.2-4.2 2.1-2.1 4.2-4.2 6.3-6.3 0-1 1-2.1 2.1-3.1 1-1 2.1-2.1 2.1-3.1 1,0 1-1 2.1-3.1 1-1 1-4.2 1-7.3 0-7.3-2.1-13.6-7.3-17.7-5.2-4.2-11.5-6.3-19.8-6.3-7.3,0-14.6,2.1-19.8,7.3-5.2,4.2-8.3,11.5-9.4,19.8h20.8c0.9-3.2 1.9-5.3 3-7.4z"/>
      <path d="m380.2,110c-3.1,0-6.3,1-8.3,3.1-2.1,2.1-3.1,5.2-3.1,8.3 0,3.1 1,6.3 3.1,8.3 2.1,2.1 4.2,3.1 8.3,3.1 3.1,0 6.3-1 8.3-3.1 2.1-2.1 3.1-5.2 3.1-8.3 0-3.1-1-6.3-3.1-8.3-2.1-2-5.2-3.1-8.3-3.1z"/>
    </g>
  </g>
</svg>
